<svg width="104" height="94" viewBox="0 0 104 94" fill="none" xmlns="http://www.w3.org/2000/svg">
<path d="M94.6376 40.0109C88.6578 39.9863 38 40.0109 38 40.0109V51.0769C38 51.0769 88.9865 51.0534 94.6376 51.0769C100.289 51.1003 100.617 40.0355 94.6376 40.0109Z" fill="#DBA16D"/>
<path d="M99.6376 53.8562C93.6578 53.8336 43 53.8562 43 53.8562V64C43 64 93.9865 63.9785 99.6376 64C105.289 64.0215 105.617 53.8787 99.6376 53.8562Z" fill="#DBA16D"/>
<path d="M98.7091 67.7005C92.8273 67.6821 43 67.7005 43 67.7005V76C43 76 93.1507 75.9824 98.7091 76C104.268 76.0176 104.591 67.719 98.7091 67.7005Z" fill="#DBA16D"/>
<path d="M91.6376 79.7005C85.6578 79.6821 35 79.7005 35 79.7005V88C35 88 85.9865 87.9824 91.6376 88C97.2886 88.0176 97.6174 79.719 91.6376 79.7005Z" fill="#DBA16D"/>
<path d="M31.2842 16.7071C28.3398 26.2674 19.1103 35.8906 16 45H49C26.1967 43.9765 43.4167 32.4351 44.8316 20.319C46.0138 10.1958 46.2211 3.16268 41.0105 0.754774C35.8 -1.65313 36.0618 1.1949 31.2842 16.7071Z" fill="#DBA16D"/>
<circle cx="30.5" cy="63.5" r="30.5" fill="#DBA16D"/>
</svg>
