<svg width="68" height="73" viewBox="0 0 68 73" fill="none" xmlns="http://www.w3.org/2000/svg">
<circle cx="30.5" cy="42.5" r="30.5" fill="#DBA16D"/>
<path d="M62.2022 19.0109C59.2557 18.9863 40.2721 19.0109 34.2939 19.0109C28.3156 19.0109 29.3156 30.0769 34.2939 30.0769C39.2721 30.0769 59.4176 30.0534 62.2022 30.0769C64.9868 30.1003 65.1488 19.0355 62.2022 19.0109Z" fill="#DBA16D" stroke="#C99464"/>
<path d="M24.014 1.22748C23.2463 2.61652 18.4804 11.6608 16.9719 14.5049C15.4635 17.3491 26.5684 22.6293 27.8246 20.2609C29.0807 17.8925 34.141 8.29604 34.8666 6.98347C35.5923 5.6709 24.7816 -0.161553 24.014 1.22748Z" fill="#DBA16D" stroke="#C99464"/>
<path d="M64.666 32.8562C61.7194 32.8336 36.7576 32.8562 36.7576 32.8562C31.8156 32.8562 31.3156 43 36.7576 43C36.7576 43 61.8814 42.9785 64.666 43C67.4506 43.0215 67.6126 32.8787 64.666 32.8562Z" fill="#DBA16D" stroke="#C99464"/>
<path d="M64.2085 46.7005C61.3102 46.6821 36.7576 46.7005 36.7576 46.7005C32.3156 46.7005 31.8156 55 36.7576 55C36.7576 55 61.4695 54.9824 64.2085 55C66.9474 55.0176 67.1067 46.719 64.2085 46.7005Z" fill="#DBA16D" stroke="#C99464"/>
<path d="M60.724 58.7005C57.7774 58.6821 32.8156 58.7005 32.8156 58.7005C29.3156 58.7005 28.8156 67 32.8156 67C32.8156 67 57.9394 66.9824 60.724 67C63.5086 67.0176 63.6705 58.719 60.724 58.7005Z" fill="#DBA16D" stroke="#C99464"/>
</svg>
