<svg width="107" height="69" viewBox="0 0 107 69" fill="none" xmlns="http://www.w3.org/2000/svg">
<circle cx="30.5" cy="38.5" r="30.5" fill="#DBA16D"/>
<path d="M97.9315 8.69831C92.0226 9.61642 42.0017 17.6243 42.0017 17.6243L43.7457 28.552C43.7457 28.552 94.0913 20.4934 99.6755 19.626C105.26 18.7585 103.84 7.7802 97.9315 8.69831Z" fill="#DBA16D"/>
<path d="M102.175 32.6716C96.209 32.2625 45.6558 29.01 45.6558 29.01L45 39.1326C45 39.1326 95.8812 42.4074 101.519 42.7942C107.157 43.181 108.141 33.0807 102.175 32.6716Z" fill="#DBA16D"/>
<path d="M67.2085 44.0082C64.3102 43.9897 39.7576 44.0082 39.7576 44.0082C35.3156 44.0082 34.8156 52.3077 39.7576 52.3077C39.7576 52.3077 64.4695 52.2901 67.2085 52.3077C69.9474 52.3253 70.1067 44.0267 67.2085 44.0082Z" fill="#DBA16D" stroke="#C99464"/>
<path d="M63.724 56.0082C60.7774 55.9897 35.8156 56.0082 35.8156 56.0082C32.3156 56.0082 31.8156 64.3077 35.8156 64.3077C35.8156 64.3077 60.9394 64.2901 63.724 64.3077C66.5086 64.3253 66.6705 56.0267 63.724 56.0082Z" fill="#DBA16D" stroke="#C99464"/>
<path d="M31.0916 1.02838C30.324 2.41741 25.5581 11.4617 24.0496 14.3058C22.5411 17.15 33.6461 22.4302 34.9023 20.0618C36.1584 17.6934 41.2187 8.09693 41.9443 6.78436C42.6699 5.47179 31.8593 -0.360657 31.0916 1.02838Z" fill="#DBA16D" stroke="#C99464"/>
</svg>
