<svg width="443" height="94" viewBox="0 0 443 94" fill="none" xmlns="http://www.w3.org/2000/svg">
<path d="M433.638 40.0109C427.658 39.9863 377 40.0109 377 40.0109V51.0769C377 51.0769 427.986 51.0534 433.638 51.0769C439.289 51.1003 439.617 40.0355 433.638 40.0109Z" fill="#DBA16D"/>
<path d="M438.638 53.8562C432.658 53.8336 382 53.8562 382 53.8562V64C382 64 432.986 63.9785 438.638 64C444.289 64.0215 444.617 53.8787 438.638 53.8562Z" fill="#DBA16D"/>
<path d="M437.709 67.7005C431.827 67.6821 382 67.7005 382 67.7005V76C382 76 432.151 75.9824 437.709 76C443.268 76.0176 443.591 67.719 437.709 67.7005Z" fill="#DBA16D"/>
<path d="M430.638 79.7005C424.658 79.6821 374 79.7005 374 79.7005V88C374 88 424.986 87.9824 430.638 88C436.289 88.0176 436.617 79.719 430.638 79.7005Z" fill="#DBA16D"/>
<path d="M370.284 16.7071C367.34 26.2674 358.11 35.8906 355 45H388C365.197 43.9765 382.417 32.4351 383.832 20.319C385.014 10.1958 385.221 3.16268 380.011 0.754774C374.8 -1.65313 375.062 1.1949 370.284 16.7071Z" fill="#DBA16D"/>
<circle cx="369.5" cy="63.5" r="30.5" fill="#DBA16D"/>
<rect y="31" width="339" height="63" fill="#D2744C"/>
<rect y="63" width="339" height="31" fill="#A06350"/>
<rect x="339" y="36" width="8" height="52" fill="white"/>
</svg>
