<svg width="407" height="73" viewBox="0 0 407 73" fill="none" xmlns="http://www.w3.org/2000/svg">
<circle cx="369.5" cy="42.5" r="30.5" fill="#DBA16D"/>
<path d="M401.202 19.0109C398.256 18.9863 379.272 19.0109 373.294 19.0109C367.316 19.0109 368.316 30.0769 373.294 30.0769C378.272 30.0769 398.418 30.0534 401.202 30.0769C403.987 30.1003 404.149 19.0355 401.202 19.0109Z" fill="#DBA16D" stroke="#C99464"/>
<path d="M363.014 1.22748C362.246 2.61652 357.48 11.6608 355.972 14.5049C354.463 17.3491 365.568 22.6293 366.825 20.2609C368.081 17.8925 373.141 8.29604 373.867 6.98347C374.592 5.6709 363.782 -0.161553 363.014 1.22748Z" fill="#DBA16D" stroke="#C99464"/>
<path d="M403.666 32.8562C400.719 32.8336 375.758 32.8562 375.758 32.8562C370.816 32.8562 370.316 43 375.758 43C375.758 43 400.881 42.9785 403.666 43C406.451 43.0215 406.613 32.8787 403.666 32.8562Z" fill="#DBA16D" stroke="#C99464"/>
<path d="M403.208 46.7005C400.31 46.6821 375.758 46.7005 375.758 46.7005C371.316 46.7005 370.816 55 375.758 55C375.758 55 400.47 54.9824 403.208 55C405.947 55.0176 406.107 46.719 403.208 46.7005Z" fill="#DBA16D" stroke="#C99464"/>
<path d="M399.724 58.7005C396.777 58.6821 371.816 58.7005 371.816 58.7005C368.316 58.7005 367.816 67 371.816 67C371.816 67 396.939 66.9824 399.724 67C402.509 67.0176 402.671 58.719 399.724 58.7005Z" fill="#DBA16D" stroke="#C99464"/>
<rect y="10" width="339" height="63" fill="#D2744C"/>
<rect y="42" width="339" height="31" fill="#A06350"/>
<rect x="339" y="15" width="8" height="52" fill="white"/>
</svg>
