<svg width="445" height="63" viewBox="0 0 445 63" fill="none" xmlns="http://www.w3.org/2000/svg">
<path d="M440.709 25.0082C434.827 24.9897 385 25.0082 385 25.0082V33.3077C385 33.3077 435.151 33.2901 440.709 33.3077C446.268 33.3253 446.591 25.0267 440.709 25.0082Z" fill="#DBA16D"/>
<path d="M437.709 21.0082C431.827 20.9897 382 21.0082 382 21.0082V29.3077C382 29.3077 432.151 29.2901 437.709 29.3077C443.268 29.3253 443.591 21.0267 437.709 21.0082Z" fill="#DBA16D"/>
<path d="M433.638 33.0082C427.658 32.9897 377 33.0082 377 33.0082V41.3077C377 41.3077 427.986 41.2901 433.638 41.3077C439.289 41.3253 439.617 33.0267 433.638 33.0082Z" fill="#DBA16D"/>
<ellipse cx="366.5" cy="33" rx="30.5" ry="17" fill="#DBA16D"/>
<rect width="339" height="63" fill="#D2744C"/>
<rect y="32" width="339" height="31" fill="#A06350"/>
<rect x="339" y="5" width="8" height="52" fill="white"/>
</svg>
