<svg width="446" height="69" viewBox="0 0 446 69" fill="none" xmlns="http://www.w3.org/2000/svg">
<circle cx="369.5" cy="38.5" r="30.5" fill="#DBA16D"/>
<path d="M436.931 8.69831C431.023 9.61642 381.002 17.6243 381.002 17.6243L382.746 28.552C382.746 28.552 433.091 20.4934 438.675 19.626C444.26 18.7585 442.84 7.7802 436.931 8.69831Z" fill="#DBA16D"/>
<path d="M441.175 32.6716C435.209 32.2625 384.656 29.01 384.656 29.01L384 39.1326C384 39.1326 434.881 42.4074 440.519 42.7942C446.157 43.181 447.141 33.0807 441.175 32.6716Z" fill="#DBA16D"/>
<path d="M406.208 44.0082C403.31 43.9897 378.758 44.0082 378.758 44.0082C374.316 44.0082 373.816 52.3077 378.758 52.3077C378.758 52.3077 403.47 52.2901 406.208 52.3077C408.947 52.3253 409.107 44.0267 406.208 44.0082Z" fill="#DBA16D" stroke="#C99464"/>
<path d="M402.724 56.0082C399.777 55.9897 374.816 56.0082 374.816 56.0082C371.316 56.0082 370.816 64.3077 374.816 64.3077C374.816 64.3077 399.939 64.2901 402.724 64.3077C405.509 64.3253 405.671 56.0267 402.724 56.0082Z" fill="#DBA16D" stroke="#C99464"/>
<path d="M370.092 1.02838C369.324 2.41741 364.558 11.4617 363.05 14.3058C361.541 17.15 372.646 22.4302 373.902 20.0618C375.158 17.6934 380.219 8.09693 380.944 6.78436C381.67 5.47179 370.859 -0.360657 370.092 1.02838Z" fill="#DBA16D" stroke="#C99464"/>
<rect y="6" width="339" height="63" fill="#4858EF"/>
<rect y="38" width="339" height="31" fill="#2F51A9"/>
<rect x="339" y="11" width="8" height="52" fill="white"/>
</svg>
